<svg width="32" height="32" viewBox="0 0 32 32" fill="none" xmlns="http://www.w3.org/2000/svg">
<g id="eva:github-fill">
<path id="Vector" d="M16.0002 1.33333C12.1514 1.29422 8.44467 2.78481 5.69447 5.4775C2.94428 8.17019 1.37571 11.8446 1.3335 15.6933C1.34833 18.7349 2.32675 21.6935 4.12825 24.1442C5.92974 26.5949 8.4616 28.4116 11.3602 29.3333C12.0935 29.4667 12.3602 29.0267 12.3602 28.64V26.2C8.28016 27.0667 7.4135 24.28 7.4135 24.28C7.14189 23.4052 6.56447 22.6574 5.78683 22.1733C4.4535 21.2933 5.8935 21.3067 5.8935 21.3067C6.35436 21.3683 6.7953 21.5334 7.18324 21.7898C7.57118 22.0461 7.89605 22.3869 8.1335 22.7867C8.54727 23.5042 9.22621 24.0305 10.0242 24.2525C10.8221 24.4744 11.6754 24.3742 12.4002 23.9733C12.4747 23.2432 12.8054 22.563 13.3335 22.0533C10.0802 21.6933 6.66683 20.4667 6.66683 14.96C6.63774 13.5236 7.16849 12.1321 8.14683 11.08C7.70127 9.84676 7.75388 8.48842 8.2935 7.29333C8.2935 7.29333 9.5335 6.90667 12.2935 8.76C14.6962 8.12102 17.2241 8.12102 19.6268 8.76C22.4268 6.90667 23.6268 7.29333 23.6268 7.29333C24.1664 8.48842 24.2191 9.84676 23.7735 11.08C24.7746 12.1129 25.3341 13.4949 25.3335 14.9333C25.3335 20.4533 21.8935 21.6667 18.6668 22.0267C19.0201 22.3697 19.2931 22.7867 19.466 23.2478C19.6389 23.7089 19.7075 24.2026 19.6668 24.6933V28.6267C19.6668 29.0933 19.9335 29.4667 20.6668 29.32C23.5572 28.3925 26.0805 26.5754 27.8764 24.1282C29.6723 21.681 30.649 18.7288 30.6668 15.6933C30.6246 11.8446 29.056 8.17019 26.3059 5.4775C23.5557 2.78481 19.8489 1.29422 16.0002 1.33333Z" fill="black"/>
</g>
</svg>
