<svg width="32" height="32" viewBox="0 0 32 32" fill="none" xmlns="http://www.w3.org/2000/svg">
<g id="jam:twitter-circle">
<g id="Group">
<path id="Vector" d="M15.9998 26.6667C18.8288 26.6667 21.5419 25.5428 23.5423 23.5425C25.5427 21.5421 26.6665 18.829 26.6665 16C26.6665 13.171 25.5427 10.4579 23.5423 8.45752C21.5419 6.45713 18.8288 5.33332 15.9998 5.33332C13.1709 5.33332 10.4578 6.45713 8.45736 8.45752C6.45698 10.4579 5.33317 13.171 5.33317 16C5.33317 18.829 6.45698 21.5421 8.45736 23.5425C10.4578 25.5428 13.1709 26.6667 15.9998 26.6667ZM15.9998 29.3333C8.63584 29.3333 2.6665 23.364 2.6665 16C2.6665 8.63599 8.63584 2.66666 15.9998 2.66666C23.3638 2.66666 29.3332 8.63599 29.3332 16C29.3332 23.364 23.3638 29.3333 15.9998 29.3333Z" fill="black"/>
<path id="Vector_2" d="M22.6663 11.9293C22.1757 12.1427 21.649 12.2893 21.0957 12.3533C21.661 12.02 22.093 11.492 22.2983 10.864C21.7592 11.177 21.1716 11.3979 20.5597 11.5173C20.3022 11.2474 19.9924 11.0328 19.6492 10.8866C19.3061 10.7403 18.9367 10.6655 18.5637 10.6667C17.053 10.6667 15.829 11.8733 15.829 13.36C15.829 13.5707 15.8526 13.7751 15.8997 13.9733C14.816 13.9222 13.755 13.6456 12.7843 13.1612C11.8136 12.6768 10.9547 11.9952 10.2623 11.16C10.0202 11.5699 9.8922 12.0372 9.89167 12.5133C9.89167 13.4467 10.3757 14.2733 11.109 14.7547C10.6751 14.7399 10.2506 14.6244 9.86901 14.4173V14.4507C9.87313 15.0766 10.0941 15.6818 10.4942 16.1631C10.8944 16.6445 11.449 16.9723 12.0637 17.0907C11.6602 17.1977 11.2379 17.2132 10.8277 17.136C11.0067 17.6744 11.3488 18.1437 11.8066 18.4789C12.2643 18.8141 12.815 18.9986 13.3823 19.0067C12.4088 19.7564 11.2138 20.1616 9.98501 20.1587C9.76456 20.1587 9.54723 20.1462 9.33301 20.1213C10.5869 20.9153 12.0409 21.3357 13.525 21.3333C18.557 21.3333 21.3077 17.2293 21.3077 13.6693L21.2983 13.32C21.834 12.9422 22.2974 12.4712 22.6663 11.9293Z" fill="black"/>
</g>
</g>
</svg>
