<svg width="32" height="32" viewBox="0 0 32 32" fill="none" xmlns="http://www.w3.org/2000/svg">
<g id="jam:linkedin-circle">
<g id="Group">
<path id="Vector" d="M22.6663 17.5066V22.436H19.809V17.836C19.809 16.6813 19.3957 15.8933 18.361 15.8933C17.5717 15.8933 17.101 16.424 16.8943 16.9386C16.8197 17.1226 16.7997 17.3786 16.7997 17.6346V22.436H13.941C13.941 22.436 13.9797 14.6466 13.941 13.84H16.7997V15.0573L16.781 15.0853H16.7997V15.0573C17.1797 14.4706 17.857 13.6373 19.3757 13.6373C21.2557 13.6373 22.6663 14.8666 22.6663 17.5066ZM10.9503 9.69464C9.97301 9.69464 9.33301 10.3373 9.33301 11.18C9.33301 12.0066 9.95434 12.6666 10.913 12.6666H10.9317C11.929 12.6666 12.549 12.0053 12.549 11.18C12.5303 10.3373 11.929 9.69464 10.9503 9.69464ZM9.50234 22.436H12.361V13.84H9.50234V22.436Z" fill="black"/>
<path id="Vector_2" d="M15.9998 26.6667C18.8288 26.6667 21.5419 25.5428 23.5423 23.5425C25.5427 21.5421 26.6665 18.829 26.6665 16C26.6665 13.171 25.5427 10.4579 23.5423 8.45752C21.5419 6.45713 18.8288 5.33332 15.9998 5.33332C13.1709 5.33332 10.4578 6.45713 8.45736 8.45752C6.45698 10.4579 5.33317 13.171 5.33317 16C5.33317 18.829 6.45698 21.5421 8.45736 23.5425C10.4578 25.5428 13.1709 26.6667 15.9998 26.6667ZM15.9998 29.3333C8.63584 29.3333 2.6665 23.364 2.6665 16C2.6665 8.63599 8.63584 2.66666 15.9998 2.66666C23.3638 2.66666 29.3332 8.63599 29.3332 16C29.3332 23.364 23.3638 29.3333 15.9998 29.3333Z" fill="black"/>
</g>
</g>
</svg>
